<svg xmlns="http://www.w3.org/2000/svg" viewBox="0 0 32 32">
  <rect width="32" height="32" rx="8" fill="#fff"/>
  <path fill="#4285F4" d="M24.5 16.2c0-.8-.1-1.4-.2-2H16v3.8h4.8c-.2 1.2-1 3-2.7 4.2l4.3 3.3C23.8 23.4 24.5 20.2 24.5 16.2z"/>
  <path fill="#34A853" d="M16 25c3.6 0 6.6-1.2 8.8-3.2l-4.3-3.3c-1.2.8-2.7 1.3-4.5 1.3-3.5 0-6.4-2.3-7.5-5.5l-4.4 3.4C7.4 22.2 11.4 25 16 25z"/>
  <path fill="#FBBC05" d="M8.5 14.3c-.3-.8-.5-1.6-.5-2.5s.2-1.7.5-2.5l-4.4-3.4C3.1 8.5 2.5 10.2 2.5 12s.6 3.5 1.6 5.1l4.4-3.8z"/>
  <path fill="#EA4335" d="M16 7.5c2 0 3.7.7 5.1 2l3.8-3.8C22.5 3.9 19.5 2.5 16 2.5 11.4 2.5 7.4 5.3 5.1 9.5l4.4 3.4C10.6 9.8 13.5 7.5 16 7.5z"/>
</svg>
