<svg xmlns="http://www.w3.org/2000/svg" viewBox="0 0 32 32" fill="none">
  <path fill="#E17726" d="M29.6 4.5 17.9 12.2l2.2-5.2 9.5-2.5z"/>
  <path fill="#E27625" d="M2.4 4.5l11.5 7.8-2-5.2L2.4 4.5z"/>
  <path fill="#E27625" d="m24.1 22.1-3.1 4.8 6.6 1.8 1.9-6.7-6.4.1zM3.5 21.9l1.9 6.7 6.6-1.8-3.1-4.8-5.4-.1z"/>
  <path fill="#D5BFB2" d="m10.2 13.6-1.8 3.4 6.4.3.2-6.9-4.8 3.2zM21.8 13.6l-4.9-3.3.2 6.9 6.4-.3-1.7-3.3z"/>
  <path fill="#233447" d="m10.2 17 1.5 4.5-6.4-.3 4.9-4.2zM20.3 17l4.9 4.2-6.4.3 1.5-4.5z"/>
  <path fill="#CC6228" d="m14.7 21.5.3 3.1 2.8-.1.3-3.1-3.4 0z"/>
  <path fill="#E27525" d="M10.2 13.6 14.7 17l-.5 4.5-4-3.4v-4.5zM21.8 13.6 17.3 17l.5 4.5 4-3.4v-4.5z"/>
</svg>
